<svg width="23" height="17" xmlns="http://www.w3.org/2000/svg">
    <defs>
        <mask id="a" x="0" y="0" width="23" height="17">
            <rect fill="#fff" width="23" height="17" rx="1"/>
            <rect fill="#1F2A5C" x="2" y="3" width="2" height="2" rx="1"/>
            <rect fill="#1F2A5C" x="19" y="3" width="2" height="2" rx="1"/>
            <rect fill="#1F2A5C" x="2" y="6" width="2" height="2" rx="1"/>
            <rect fill="#1F2A5C" x="19" y="6" width="2" height="2" rx="1"/>
            <rect fill="#1F2A5C" x="2" y="9" width="2" height="2" rx="1"/>
            <rect fill="#1F2A5C" x="19" y="9" width="2" height="2" rx="1"/>
            <rect fill="#1F2A5C" x="2" y="12" width="2" height="2" rx="1"/>
            <rect fill="#1F2A5C" x="19" y="12" width="2" height="2" rx="1"/>
            <path d="M14.582 9.127l-3.957 3.17A1 1 0 0 1 9 11.517V5.176a1 1 0 0 1 1.625-.78l3.957 3.17a1 1 0 0 1 0 1.56z" fill="#1F2A5D"/>
        </mask>
    </defs>
    <rect mask="url(#a)" fill="#fff" width="23" height="17" rx="1" fill-rule="evenodd"/>
</svg>