<svg width="32" height="32" viewBox="0 0 32 32" class="icon fill" fill="none" xmlns="http://www.w3.org/2000/svg" id="GIFButton" aria-label="Add a reaction GIF"><title>Add a reaction GIF</title><path fill-rule="evenodd" clip-rule="evenodd" d="M7.45154 8.34807C9.2738 8.1991 12.384 8 16 8C19.616 8 22.7262 8.1991 24.5485 8.34807C26.1156 8.47619 27.4286 9.40131 27.6373 10.6984C27.8136 11.7938 28 13.5351 28 16C28 18.4649 27.8136 20.2062 27.6373 21.3016C27.4286 22.5987 26.1156 23.5238 24.5485 23.6519C22.7262 23.8009 19.616 24 16 24C12.384 24 9.2738 23.8009 7.45154 23.6519C5.88439 23.5238 4.57138 22.5987 4.36268 21.3016C4.18643 20.2062 4 18.4649 4 16C4 13.5351 4.18643 11.7938 4.36268 10.6984C4.57138 9.40131 5.88439 8.47619 7.45154 8.34807ZM10.871 20C12.1861 20 13.224 19.4676 13.9939 18.6307C14.0744 18.5432 14.116 18.4274 14.116 18.3085V15.9203C14.116 15.6441 13.8922 15.4203 13.616 15.4203H11.4494C10.9659 15.4203 10.574 15.8122 10.574 16.2957C10.574 16.7791 10.9659 17.171 11.4494 17.171H12.124C12.1793 17.171 12.224 17.2158 12.224 17.271V17.6834C12.224 17.7409 12.1998 17.7963 12.1537 17.8307C11.8702 18.0422 11.366 18.2377 10.871 18.2377C9.67203 18.2377 8.82502 17.2638 8.82502 16C8.82502 14.7246 9.67203 13.7623 10.871 13.7623C11.2323 13.7623 11.5542 13.8837 11.8199 14.0696C12.233 14.3587 12.7822 14.5501 13.2242 14.3075C13.6582 14.0692 13.8302 13.516 13.5032 13.1442C12.9342 12.4974 12.0788 12 10.871 12C8.68202 12 6.90002 13.542 6.90002 16C6.90002 18.458 8.68202 20 10.871 20ZM16.6 20C17.1523 20 17.6 19.5523 17.6 19V13C17.6 12.4477 17.1523 12 16.6 12C16.0477 12 15.6 12.4477 15.6 13V19C15.6 19.5523 16.0477 20 16.6 20ZM21.1629 19C21.1629 19.5523 20.7152 20 20.1629 20H20.1C19.5477 20 19.1 19.5523 19.1 19V12.5C19.1 12.2239 19.3238 12 19.6 12H24.2004C24.6972 12 25.1 12.4027 25.1 12.8996C25.1 13.3964 24.6972 13.7991 24.2004 13.7991H21.3629C21.2525 13.7991 21.1629 13.8886 21.1629 13.9991V14.8438C21.1629 14.9553 21.2541 15.0452 21.3656 15.0437L23.6883 15.0123C24.1898 15.0055 24.6 15.4102 24.6 15.9117C24.6 16.4037 24.2046 16.8044 23.7127 16.8111L21.3602 16.8429C21.2508 16.8444 21.1629 16.9335 21.1629 17.0429V19Z" fill="#B4B9C2"></path></svg>