<svg width="32" height="32" viewBox="0 0 32 32" class="icon fill" fill="none" xmlns="http://www.w3.org/2000/svg"><title>Upload an image or video to use in this comment.</title><path fill-rule="evenodd" clip-rule="evenodd" d="M9.23247 8.34807C10.6751 8.1991 13.1373 8 16 8C18.8627 8 21.3249 8.1991 22.7675 8.34807C24.0082 8.47619 25.0477 9.40131 25.2129 10.6984C25.3524 11.7938 25.5 13.5351 25.5 16C25.5 18.4649 25.3524 20.2062 25.2129 21.3016C25.0477 22.5987 24.0082 23.5238 22.7675 23.6519C21.3249 23.8009 18.8627 24 16 24C13.1373 24 10.6751 23.8009 9.23247 23.6519C7.99181 23.5238 6.95235 22.5987 6.78712 21.3016C6.64759 20.2062 6.5 18.4649 6.5 16C6.5 13.5351 6.64759 11.7938 6.78712 10.6984C6.95235 9.40131 7.99181 8.47619 9.23247 8.34807ZM14 13.5C14 14.3284 13.3284 15 12.5 15C11.6716 15 11 14.3284 11 13.5C11 12.6716 11.6716 12 12.5 12C13.3284 12 14 12.6716 14 13.5ZM10 19.3104C10 19.7002 10.2975 20.0242 10.6864 20.0511C11.7435 20.1242 13.8718 20.25 16 20.25C17.9833 20.25 19.9666 20.1407 21.0831 20.0667C21.602 20.0323 22 19.6 22 19.0799V19C22 18.7836 21.9298 18.5731 21.8 18.4L18.55 14.0667C18.15 13.5333 17.35 13.5333 16.95 14.0667L14 18L13.2071 17.2071C12.8166 16.8166 12.1834 16.8166 11.7929 17.2071L10.2195 18.7805C10.079 18.9211 10 19.1117 10 19.3104Z" fill="#B4B9C2"></path></svg>