<svg xmlns="http://www.w3.org/2000/svg" version="1.1" width="17" height="17" fill='white'>
    <rect id="backgroundrect" width="100%" height="100%" x="0" y="0" fill="none" stroke="none"></rect>
    <g>
        <g>
            <g>
                <polygon points="6.17870715566179,0 1.1573245256338325,0 0.15306144952774048,0 0.15306144952774048,1.0042672515679527 0.15306144952774048,6.0256540079346905 0.15306144952774048,7.02991762439467 1.1573245256338325,7.02991762439467 6.17870715566179,7.02991762439467 7.18298727747689,7.02991762439467 7.18298727747689,6.0256540079346905 7.18298727747689,1.0042672515679527 7.18298727747689,0 ">
                </polygon>
            </g>
        </g>
        <g>
            <g>
                <polygon points="6.278707504272461,10 1.25732421875,10 0.25306129455566406,10 0.25306129455566406,11.004266738891602 0.25306129455566406,16.025653839111328 0.25306129455566406,17.029918670654297 1.25732421875,17.029918670654297 6.278707504272461,17.029918670654297 7.282987594604492,17.029918670654297 7.282987594604492,16.025653839111328 7.282987594604492,11.004266738891602 7.282987594604492,10 ">
                </polygon>
            </g>
        </g>
        <g>
            <g>
                <polygon points="15.978708267211914,9.900003053247929 10.957324981689453,9.900003053247929 9.953062057495117,9.900003053247929 9.953062057495117,10.90426979213953 9.953062057495117,15.925656892359257 9.953062057495117,16.929921723902225 10.957324981689453,16.929921723902225 15.978708267211914,16.929921723902225 16.982988357543945,16.929921723902225 16.982988357543945,15.925656892359257 16.982988357543945,10.90426979213953 16.982988357543945,9.900003053247929 ">
                </polygon>
            </g>
        </g>
            <g>
                <g>
                    <polygon points="15.878707885742188,-0.10000000149011612 10.857324600219727,-0.10000000149011612 9.85306167602539,-0.10000000149011612 9.85306167602539,0.9042667374014854 9.85306167602539,5.925653837621212 9.85306167602539,6.929918669164181 10.857324600219727,6.929918669164181 15.878707885742188,6.929918669164181 16.88298797607422,6.929918669164181 16.88298797607422,5.925653837621212 16.88298797607422,0.9042667374014854 16.88298797607422,-0.10000000149011612 ">
                    </polygon>
                </g>
        </g>
    </g>
</svg>