<svg xmlns="http://www.w3.org/2000/svg" width="17" height="17" fill="white">
    <rect id="backgroundrect" width="100%" height="100%" x="0" y="0" fill="none" stroke="none"></rect>
    <g>
    <g>
    <g id="svg_10">
    <polygon points="6.178707122802734,0 1.1573245525360107,0 0.15306150913238525,0 0.15306150913238525,1.2756938815360286 0.15306150913238525,7.654227611753868 0.15306150913238525,8.929917633937634 1.1573245525360107,8.929917633937634 6.178707122802734,8.929917633937634 7.182987213134766,8.929917633937634 7.182987213134766,7.654227611753868 7.182987213134766,1.2756938815360286 7.182987213134766,0 ">
    </polygon>
    </g>
    </g>
    <g>
    <g id="svg_34">
    <polygon points="6.278707504272461,12.099999867934457 1.25732421875,12.099999867934457 0.25306129455566406,12.099999867934457 0.25306129455566406,12.804268837391646 0.25306129455566406,16.325651648036 0.25306129455566406,17.029918670654297 1.25732421875,17.029918670654297 6.278707504272461,17.029918670654297 7.282987594604492,17.029918670654297 7.282987594604492,16.325651648036 7.282987594604492,12.804268837391646 7.282987594604492,12.099999867934457 "></polygon>
    </g>
    </g>
    <g>
    <g id="svg_38">
    <polygon points="15.978708267211914,8.100003717719119 10.957324981689453,8.100003717719119 9.953062057495117,8.100003717719119 9.953062057495117,9.361411389385012 9.953062057495117,15.66851682793822 9.953062057495117,16.929922103881836 10.957324981689453,16.929922103881836 15.978708267211914,16.929922103881836 16.982988357543945,16.929922103881836 16.982988357543945,15.66851682793822 16.982988357543945,9.361411389385012 16.982988357543945,8.100003717719119 "></polygon>
    </g>
    </g>
    <g>
    <g>
    <polygon points="15.878707885742188,-0.10000000149011612 10.857324600219727,-0.10000000149011612 9.85306167602539,-0.10000000149011612 9.85306167602539,0.6185544841542594 9.85306167602539,4.2113652655988005 9.85306167602539,4.929918346846392 10.857324600219727,4.929918346846392 15.878707885742188,4.929918346846392 16.88298797607422,4.929918346846392 16.88298797607422,4.2113652655988005 16.88298797607422,0.6185544841542594 16.88298797607422,-0.10000000149011612 ">
    </polygon>
    </g>
    </g>
    </g>
</svg>