<?xml version="1.0" encoding="utf-8"?>
<!-- Generator: Adobe Illustrator 25.3.1, SVG Export Plug-In . SVG Version: 6.00 Build 0)  -->
<svg version="1.1" id="Layer_1" xmlns="http://www.w3.org/2000/svg" xmlns:xlink="http://www.w3.org/1999/xlink" x="0px" y="0px"
	 viewBox="0 0 93.97 32.55" style="enable-background:new 0 0 93.97 32.55;" xml:space="preserve">
<style type="text/css">
	.st0{fill:#FFFFFF;}
	.st1{fill-rule:evenodd;clip-rule:evenodd;fill:#FFFFFF;}
	.st2{fill:#1BB76E;}
</style>
<g>
	<path class="st0" d="M87.39,16.58c0-1.73,0.18-2.33,1.76-3c0.57-0.24,1.14-0.42,1.69-0.6c1.69-0.55,3.12-1.01,3.12-2.53
		c0-1.34-1.29-2.49-2.88-2.49c-1.33,0-2.66,0.58-3.85,1.69c-0.68-1.09-1.58-1.6-2.7-1.6c-1.94,0-2.84,1.18-2.84,3.64v10.13
		c0,2.46,0.9,3.67,2.84,3.67c1.94,0,2.84-1.21,2.84-3.67V16.58z"/>
	<path class="st1" d="M48.24,32.55c4.03,0,6.98-1.31,8.63-3.77c1.11-1.63,1.33-3.93,1.33-6.96V11.69c0-2.46-0.9-3.64-2.84-3.64
		c-0.86,0-1.87,0.54-2.52,1.6c-1.15-1.21-2.59-1.79-4.53-1.79c-4.82,0-8.81,3.8-8.81,8.91c0,5.11,3.74,8.75,8.2,8.75
		c2.23,0,3.92-0.8,5.14-2.36c0,0.12,0.01,0.22,0.02,0.33c0.01,0.1,0.02,0.19,0.02,0.28c0,2.75-1.65,4.25-4.42,4.25
		c-1.77,0-3.09-0.47-4.16-0.86c-0.73-0.26-1.35-0.49-1.92-0.49c-1.4,0-2.45,0.93-2.45,2.2C39.94,30.86,43.07,32.55,48.24,32.55z
		 M45.37,16.77c0-2.52,1.62-4.12,3.71-4.12c2.09,0,3.74,1.6,3.74,4.12c0,2.56-1.62,4.22-3.74,4.22
		C46.95,20.99,45.37,19.36,45.37,16.77z"/>
	<path class="st0" d="M31.59,21.82c0,2.46,0.86,3.67,2.81,3.67c1.94,0,2.84-1.21,2.84-3.67V14.6c0-4.34-2.48-6.61-6.4-6.61
		c-2.34,0-3.99,0.67-5.72,2.36c-1.33-1.57-3.2-2.36-5.65-2.36c-1.91,0-3.34,0.51-4.53,1.66c-0.68-1.09-1.58-1.6-2.7-1.6
		c-1.94,0-2.84,1.18-2.84,3.64v10.13c0,2.46,0.9,3.67,2.84,3.67c1.94,0,2.84-1.21,2.84-3.67v-5.75c0-2.49,0.79-3.77,2.84-3.77
		c1.83,0,2.55,1.28,2.55,3.83v5.69c0,2.46,0.9,3.67,2.84,3.67c1.94,0,2.84-1.21,2.84-3.67v-5.75c0-2.49,0.79-3.77,2.84-3.77
		c1.83,0,2.59,1.28,2.59,3.83V21.82z"/>
	<path class="st0" d="M6.24,11.69c0-2.46-0.9-3.64-2.81-3.64c-1.94,0-2.84,1.18-2.84,3.64v10.13c0,2.46,0.9,3.67,2.84,3.67
		c1.94,0,2.81-1.21,2.81-3.67V11.69z"/>
	<path class="st2" d="M3.52,0C1.59,0,0,1.35,0,3c0,1.68,1.55,3,3.52,3C5.45,6,7,4.68,7,3C7,1.35,5.45,0,3.52,0z"/>
	<g>
		<path class="st0" d="M74.54,22.62c-0.59,1.05-1.32,1.78-2.2,2.17c-0.87,0.39-1.94,0.59-3.2,0.59c-1.26,0-2.41-0.19-3.45-0.57
			c-1.04-0.38-1.93-0.94-2.68-1.67c-0.74-0.73-1.32-1.63-1.73-2.7c-0.41-1.06-0.62-2.28-0.62-3.64c0-1.67,0.24-3.08,0.71-4.22
			c0.48-1.14,1.1-2.06,1.89-2.76s1.69-1.2,2.72-1.5c1.03-0.3,2.09-0.45,3.2-0.45c1.23,0,2.33,0.27,3.28,0.82
			c0.95,0.55,1.67,1.35,2.16,2.4v-1.3c0-0.33,0.2-0.68,0.6-1.05s1.01-0.56,1.83-0.56c0.82,0.02,1.43,0.21,1.83,0.57
			c0.4,0.36,0.6,0.71,0.6,1.04v13.8c0,0.33-0.16,0.68-0.48,1.04c-0.32,0.36-0.98,0.55-1.99,0.57c-0.51,0-0.93-0.05-1.23-0.16
			c-0.31-0.1-0.56-0.24-0.75-0.4c-0.19-0.17-0.32-0.34-0.39-0.53c-0.06-0.19-0.09-0.36-0.09-0.53V22.62z M65.69,16.76
			c0.02,1.4,0.36,2.4,1.02,3.02c0.66,0.62,1.58,0.92,2.75,0.92s2.04-0.35,2.59-1.05c0.55-0.7,0.81-1.66,0.79-2.87
			c-0.02-1.24-0.31-2.23-0.87-2.96c-0.56-0.73-1.41-1.11-2.57-1.14c-1.16-0.02-2.07,0.31-2.74,0.98
			C66,14.33,65.67,15.37,65.69,16.76z"/>
	</g>
</g>
</svg>
