<svg width="14" height="14" viewBox="0 0 20 20" fill="none" xmlns="http://www.w3.org/2000/svg"><title>Gift</title><path d="M2 10H18M2 10V17C2 18.1046 2.89543 19 4 19H16C17.1046 19 18 18.1046 18 17V10M2 10C1.44772 10 1 9.55228 1 9V7C1 6.44772 1.44772 6 2 6H18C18.5523 6 19 6.44772 19 7V9C19 9.55228 18.5523 10 18 10M10 5.94772C11.3446 5.69262 14.7315 5.03061 15.5941 3.95918C15.8478 3.65306 16 3.2449 16 2.81122C16 1.81633 15.1882 1 14.1987 1C13.7928 1 13.4123 1.12755 13.0825 1.38265C11.9408 2.22449 10.3552 4.72323 10 5.94772ZM10 5.94772C9.64482 4.69772 8.0592 2.22449 6.91755 1.40816C6.58774 1.12755 6.20719 1 5.80127 1C4.81184 1 4 1.81633 4 2.81122C4 3.21939 4.12685 3.62755 4.40592 3.95918C5.2685 5.03061 8.65539 5.69262 10 5.94772ZM10 7L10 18" stroke="#ffffff" stroke-width="2"></path></svg>